<svg width="21" height="19" viewBox="0 0 21 19" fill="none" xmlns="http://www.w3.org/2000/svg">
<path d="M11.8125 10.1333C12.5087 10.1333 13.1764 10.4002 13.6687 10.8753C14.1609 11.3504 14.4375 11.9948 14.4375 12.6667V14.5667C14.4375 17.1684 11.697 19 7.21875 19C2.7405 19 0 17.1684 0 14.5667V12.6667C0 11.9948 0.276562 11.3504 0.768845 10.8753C1.26113 10.4002 1.92881 10.1333 2.625 10.1333H11.8125ZM18.375 10.1333C19.0712 10.1333 19.7389 10.4002 20.2312 10.8753C20.7234 11.3504 21 11.9948 21 12.6667V13.3C21 15.9461 18.942 17.7333 15.0938 17.7333C14.9087 17.7333 14.7263 17.7295 14.5504 17.7207C15.2668 16.9257 15.686 15.9217 15.7408 14.8694L15.75 14.5667V12.6667C15.75 11.7901 15.4429 10.982 14.9257 10.3398L14.7459 10.1333H18.375ZM7.21875 0C7.82201 -8.67536e-09 8.41936 0.114671 8.9767 0.337467C9.53404 0.560263 10.0405 0.88682 10.467 1.29849C10.8936 1.71017 11.232 2.19889 11.4628 2.73677C11.6937 3.27465 11.8125 3.85114 11.8125 4.43333C11.8125 5.01553 11.6937 5.59202 11.4628 6.1299C11.232 6.66777 10.8936 7.1565 10.467 7.56817C10.0405 7.97985 9.53404 8.3064 8.9767 8.5292C8.41936 8.752 7.82201 8.86667 7.21875 8.86667C6.00041 8.86667 4.83197 8.39958 3.97048 7.56817C3.10898 6.73676 2.625 5.60913 2.625 4.43333C2.625 3.25754 3.10898 2.1299 3.97048 1.29849C4.83197 0.467082 6.00041 1.75207e-08 7.21875 0V0ZM16.4062 2.53333C17.2765 2.53333 18.1111 2.86696 18.7264 3.46083C19.3418 4.05469 19.6875 4.86015 19.6875 5.7C19.6875 6.53985 19.3418 7.34531 18.7264 7.93917C18.1111 8.53304 17.2765 8.86667 16.4062 8.86667C15.536 8.86667 14.7014 8.53304 14.0861 7.93917C13.4707 7.34531 13.125 6.53985 13.125 5.7C13.125 4.86015 13.4707 4.05469 14.0861 3.46083C14.7014 2.86696 15.536 2.53333 16.4062 2.53333Z" fill="#3A3A3A"/>
</svg>
